<?xml version="1.0" encoding="utf-8"?>
<!-- Generator: Adobe Illustrator 21.0.0, SVG Export Plug-In . SVG Version: 6.00 Build 0)  -->
<svg version="1.1" id="图层_1" xmlns="http://www.w3.org/2000/svg" xmlns:xlink="http://www.w3.org/1999/xlink" x="0px" y="0px"
	 viewBox="0 0 36 28" style="enable-background:new 0 0 36 28;" xml:space="preserve">
<style type="text/css">
	.st0{fill:#BABABA;}
	.st1{fill:#D9D9D9;}
	.st2{fill:none;stroke:#D65CD6;stroke-width:0.75;stroke-linecap:round;stroke-linejoin:round;stroke-miterlimit:10;}
	.st3{fill:none;stroke:#FFAB19;stroke-width:0.75;stroke-linecap:round;stroke-linejoin:round;stroke-miterlimit:10;}
	.st4{fill:none;stroke:#4CBFE6;stroke-width:0.75;stroke-linecap:round;stroke-linejoin:round;stroke-miterlimit:10;}
	.st5{fill:none;stroke:#4C97FF;stroke-width:0.75;stroke-linecap:round;stroke-linejoin:round;stroke-miterlimit:10;}
	.st6{fill:none;stroke:#FF8C1A;stroke-width:0.75;stroke-linecap:round;stroke-linejoin:round;stroke-miterlimit:10;}
	.st7{fill:none;stroke:#FF6680;stroke-width:0.75;stroke-linecap:round;stroke-linejoin:round;stroke-miterlimit:10;}
	.st8{fill:none;stroke:#9966FF;stroke-width:0.75;stroke-linecap:round;stroke-linejoin:round;stroke-miterlimit:10;}
	.st9{fill:none;stroke:#9966FF;stroke-width:0.75;stroke-linecap:round;stroke-linejoin:round;stroke-dasharray:1.9286,1.9286;}
	.st10{fill:none;stroke:#FFD500;stroke-width:0.75;stroke-linecap:round;stroke-linejoin:round;stroke-miterlimit:10;}
	.st11{fill:none;stroke:#40BF4A;stroke-width:0.75;stroke-linecap:round;stroke-linejoin:round;stroke-miterlimit:10;}
	.st12{fill:none;stroke:#00B295;stroke-width:0.75;stroke-linecap:round;stroke-linejoin:round;stroke-miterlimit:10;}
</style>
<g>
	<path class="st10" d="M23,14.4c-0.3,0-0.6,0.1-0.8,0.3c-0.1-0.5-0.6-0.9-1.1-0.9c-0.3,0-0.6,0.1-0.8,0.3c-0.1-0.6-0.6-1.1-1.2-1.1
		c-0.3,0-0.6,0.1-0.8,0.3V9.9c0-0.7-0.5-1.2-1.2-1.2c-0.7,0-1.2,0.5-1.2,1.2v7.5l-1.3-1.1c-0.5-0.4-1.3-0.4-1.7,0.1
		c-0.4,0.5-0.4,1.3,0.1,1.7l3.1,2.7v2.4h7.2v-2.5c0.5-0.1,0.9-0.6,0.9-1.1v-3.9C24.2,15,23.7,14.4,23,14.4z"/>
	<line class="st10" x1="16.1" y1="20.8" x2="23.3" y2="20.8"/>
	<line class="st10" x1="17.1" y1="6.6" x2="17.1" y2="4.8"/>
	<line class="st10" x1="14.6" y1="7.6" x2="13.3" y2="6.3"/>
	<line class="st10" x1="13.6" y1="10" x2="11.8" y2="10"/>
	<line class="st10" x1="14.6" y1="12.5" x2="13.3" y2="13.7"/>
	<line class="st10" x1="20.5" y1="10" x2="22.3" y2="10"/>
	<line class="st10" x1="19.5" y1="7.6" x2="20.8" y2="6.3"/>
</g>
</svg>
