<?xml version="1.0" encoding="utf-8"?>
<!-- Generator: Adobe Illustrator 21.0.0, SVG Export Plug-In . SVG Version: 6.00 Build 0)  -->
<svg version="1.1" id="图层_1" xmlns="http://www.w3.org/2000/svg" xmlns:xlink="http://www.w3.org/1999/xlink" x="0px" y="0px"
	 viewBox="0 0 36 28" style="enable-background:new 0 0 36 28;" xml:space="preserve">
<style type="text/css">
	.st0{fill:#BABABA;}
	.st1{fill:#D9D9D9;}
	.st2{fill:none;stroke:#D65CD6;stroke-width:0.75;stroke-linecap:round;stroke-linejoin:round;stroke-miterlimit:10;}
	.st3{fill:none;stroke:#FFAB19;stroke-width:0.75;stroke-linecap:round;stroke-linejoin:round;stroke-miterlimit:10;}
	.st4{fill:none;stroke:#4CBFE6;stroke-width:0.75;stroke-linecap:round;stroke-linejoin:round;stroke-miterlimit:10;}
	.st5{fill:none;stroke:#4C97FF;stroke-width:0.75;stroke-linecap:round;stroke-linejoin:round;stroke-miterlimit:10;}
	.st6{fill:none;stroke:#FF8C1A;stroke-width:0.75;stroke-linecap:round;stroke-linejoin:round;stroke-miterlimit:10;}
	.st7{fill:none;stroke:#FF6680;stroke-width:0.75;stroke-linecap:round;stroke-linejoin:round;stroke-miterlimit:10;}
	.st8{fill:none;stroke:#9966FF;stroke-width:0.75;stroke-linecap:round;stroke-linejoin:round;stroke-miterlimit:10;}
	.st9{fill:none;stroke:#9966FF;stroke-width:0.75;stroke-linecap:round;stroke-linejoin:round;stroke-dasharray:1.9286,1.9286;}
	.st10{fill:none;stroke:#FFD500;stroke-width:0.75;stroke-linecap:round;stroke-linejoin:round;stroke-miterlimit:10;}
	.st11{fill:none;stroke:#40BF4A;stroke-width:0.75;stroke-linecap:round;stroke-linejoin:round;stroke-miterlimit:10;}
	.st12{fill:none;stroke:#00B295;stroke-width:0.75;stroke-linecap:round;stroke-linejoin:round;stroke-miterlimit:10;}
</style>
<g>
	<path class="st12" d="M22.6,13.4c0.1-0.7-0.4-1.8-1.3-2.7c-0.9-0.9-2-1.4-2.7-1.3"/>
	<line class="st12" x1="14.5" y1="16.1" x2="20.4" y2="10.2"/>
	<line class="st12" x1="15.9" y1="17.6" x2="21.8" y2="11.7"/>
	<path class="st12" d="M16.5,19.6c0.1-0.7-0.4-1.8-1.3-2.7c-1-1-2.1-1.5-2.8-1.3"/>
	<path class="st12" d="M11.6,18.3c0.5,0.1,1,0.4,1.3,0.8c0.4,0.4,0.7,0.9,0.8,1.3"/>
	<path class="st12" d="M12,15.8l6.1-6.1l1.8-1.8c0.6-0.6,1.8-0.6,2.5,0.1l1.7,1.7c0.7,0.7,0.8,1.8,0.1,2.5l-1.9,1.9L16.2,20
		l-1.1,0.2l-1.4,0.2c0,0-1.7,0.2-1.7,0.2c-0.4,0.1-0.7-0.3-0.6-0.6c0,0,0.2-1.7,0.2-1.7l0.2-1.4L12,15.8z"/>
</g>
</svg>
