<?xml version="1.0" encoding="utf-8"?>
<!-- Generator: Adobe Illustrator 21.0.0, SVG Export Plug-In . SVG Version: 6.00 Build 0)  -->
<svg version="1.1" id="图层_1" xmlns="http://www.w3.org/2000/svg" xmlns:xlink="http://www.w3.org/1999/xlink" x="0px" y="0px"
	 viewBox="0 0 36 28" style="enable-background:new 0 0 36 28;" xml:space="preserve">
<style type="text/css">
	.st0{fill:#BABABA;}
	.st1{fill:#D9D9D9;}
	.st2{fill:none;stroke:#D65CD6;stroke-width:0.75;stroke-linecap:round;stroke-linejoin:round;stroke-miterlimit:10;}
	.st3{fill:none;stroke:#FFAB19;stroke-width:0.75;stroke-linecap:round;stroke-linejoin:round;stroke-miterlimit:10;}
	.st4{fill:none;stroke:#4CBFE6;stroke-width:0.75;stroke-linecap:round;stroke-linejoin:round;stroke-miterlimit:10;}
	.st5{fill:none;stroke:#4C97FF;stroke-width:0.75;stroke-linecap:round;stroke-linejoin:round;stroke-miterlimit:10;}
	.st6{fill:none;stroke:#FF8C1A;stroke-width:0.75;stroke-linecap:round;stroke-linejoin:round;stroke-miterlimit:10;}
	.st7{fill:none;stroke:#FF6680;stroke-width:0.75;stroke-linecap:round;stroke-linejoin:round;stroke-miterlimit:10;}
	.st8{fill:none;stroke:#9966FF;stroke-width:0.75;stroke-linecap:round;stroke-linejoin:round;stroke-miterlimit:10;}
	.st9{fill:none;stroke:#9966FF;stroke-width:0.75;stroke-linecap:round;stroke-linejoin:round;stroke-dasharray:1.9286,1.9286;}
	.st10{fill:none;stroke:#FFD500;stroke-width:0.75;stroke-linecap:round;stroke-linejoin:round;stroke-miterlimit:10;}
	.st11{fill:none;stroke:#40BF4A;stroke-width:0.75;stroke-linecap:round;stroke-linejoin:round;stroke-miterlimit:10;}
	.st12{fill:none;stroke:#00B295;stroke-width:0.75;stroke-linecap:round;stroke-linejoin:round;stroke-miterlimit:10;}
</style>
<g>
	<ellipse class="st6" cx="18" cy="9.3" rx="6.2" ry="2.4"/>
	<path class="st6" d="M24.2,12.4c0,1.3-2.8,2.4-6.2,2.4s-6.2-1.1-6.2-2.4"/>
	<path class="st6" d="M24.2,15.6c0,1.3-2.8,2.4-6.2,2.4s-6.2-1.1-6.2-2.4"/>
	<path class="st6" d="M24.2,18.7c0,1.3-2.8,2.4-6.2,2.4s-6.2-1.1-6.2-2.4"/>
	<line class="st6" x1="11.8" y1="9.3" x2="11.8" y2="18.7"/>
	<line class="st6" x1="24.2" y1="9.3" x2="24.2" y2="18.7"/>
	<line class="st6" x1="21.2" y1="12.6" x2="21.2" y2="13.2"/>
	<line class="st6" x1="21.2" y1="15.8" x2="21.2" y2="16.4"/>
	<line class="st6" x1="21.2" y1="18.9" x2="21.2" y2="19.5"/>
</g>
</svg>
